<svg width="49" height="48" viewBox="0 0 49 48" fill="none" xmlns="http://www.w3.org/2000/svg">
<g clip-path="url(#clip0_66_4421)">
<path d="M24.5 16L18.5 19.5V26.5L24.5 30L30.5 26.5V19.5L24.5 16ZM27.534 20.08L24.474 21.864L21.44 20.094L24.5 18.31L27.534 20.08ZM20.48 21.844L23.448 23.576V27.076L20.48 25.346V21.844ZM25.428 27.15V23.616L28.52 21.812V25.346L25.428 27.15ZM6.5 0L0.5 3.5V10.5L6.5 14L12.5 10.5V3.5L6.5 0ZM9.534 4.08L6.474 5.864L3.44 4.094L6.5 2.31L9.534 4.08ZM2.48 5.842L5.448 7.574V11.074L2.48 9.348V5.842ZM7.428 11.148V7.616L10.52 5.812V9.346L7.428 11.148ZM6.5 34L0.5 37.5V44.5L6.5 48L12.5 44.5V37.5L6.5 34ZM9.534 38.08L6.474 39.864L3.44 38.094L6.5 36.31L9.534 38.08ZM2.48 39.844L5.448 41.576V45.076L2.48 43.348V39.844ZM7.428 45.15V41.616L10.52 39.812V43.346L7.428 45.15ZM42.5 0L36.5 3.5V10.5L42.5 14L48.5 10.5V3.5L42.5 0ZM45.534 4.08L42.474 5.864L39.44 4.094L42.5 2.31L45.534 4.08ZM38.48 5.844L41.448 7.576V11.076L38.48 9.346V5.844ZM43.428 11.15V7.616L46.52 5.812V9.346L43.428 11.15ZM42.5 34L36.5 37.5V44.5L42.5 48L48.5 44.5V37.5L42.5 34ZM45.534 38.08L42.474 39.864L39.44 38.094L42.5 36.31L45.534 38.08ZM38.48 39.844L41.448 41.576V45.076L38.48 43.346V39.844ZM43.428 45.15V41.616L46.52 39.812V43.346L43.428 45.15ZM18.5 6H30.5V8H18.5V6ZM18.5 40H30.5V42H18.5V40ZM7.5 18V30H5.5V18H7.5ZM15.086 17.656L10.844 13.414L12.258 12L16.5 16.24L15.086 17.656ZM32.5 16.586L36.742 12.344L38.156 13.758L33.914 18L32.5 16.586ZM16.756 29.758L12.514 34L11.1 32.586L15.342 28.344L16.756 29.758ZM34.258 28.258L38.5 32.5L37.086 33.914L32.844 29.672L34.258 28.258ZM43.5 18V30H41.5V18H43.5Z" fill="black"/>
<path d="M29.5 17H19.5C18.9477 17 18.5 17.4477 18.5 18V33C18.5 33.5523 18.9477 34 19.5 34H29.5C30.0523 34 30.5 33.5523 30.5 33V18C30.5 17.4477 30.0523 17 29.5 17Z" fill="#1890FF" stroke="black" stroke-width="2" stroke-linejoin="round"/>
<path d="M18.5 21H30.5" stroke="white" stroke-width="2" stroke-linecap="round"/>
<path d="M18.5 19.5V22.5" stroke="black" stroke-width="2" stroke-linecap="round" stroke-linejoin="round"/>
<path d="M30.5 19.5V22.5" stroke="black" stroke-width="2" stroke-linecap="round" stroke-linejoin="round"/>
<path d="M28.5 14H20.5V17H28.5V14Z" fill="#1890FF" stroke="black" stroke-width="2" stroke-linejoin="round"/>
<path d="M22.5 27.5H26.5" stroke="white" stroke-width="2" stroke-linecap="round"/>
<path d="M24.5 25.5V29.5" stroke="white" stroke-width="2" stroke-linecap="round"/>
</g>
<defs>
<clipPath id="clip0_66_4421">
<rect width="48" height="48" fill="white" transform="translate(0.5)"/>
</clipPath>
</defs>
</svg>
